<?xml version="1.0" encoding="iso-8859-1"?>
<!-- Generator: Adobe Illustrator 19.0.0, SVG Export Plug-In . SVG Version: 6.00 Build 0)  -->
<svg xmlns="http://www.w3.org/2000/svg" width="600" height="300" viewBox="0 0 600 300">
  <!-- Drum Machine Body -->
  <rect x="20" y="20" width="560" height="260" rx="20" ry="20" fill="#222" stroke="#000" stroke-width="4"/>
  
  <!-- 808 Logo -->
  <text x="40" y="60" font-family="sans-serif" font-size="24" fill="#f90">TR-808</text>
  
  <!-- Knobs -->
  <circle cx="100" cy="120" r="10" fill="#666" stroke="#000" stroke-width="2"/>
  <circle cx="150" cy="120" r="10" fill="#666" stroke="#000" stroke-width="2"/>
  <circle cx="200" cy="120" r="10" fill="#666" stroke="#000" stroke-width="2"/>
  <circle cx="250" cy="120" r="10" fill="#666" stroke="#000" stroke-width="2"/>

  <!-- Buttons -->
  <rect x="80" y="200" width="20" height="20" fill="#f00" stroke="#000" stroke-width="2"/>
  <rect x="110" y="200" width="20" height="20" fill="#ff0" stroke="#000" stroke-width="2"/>
  <rect x="140" y="200" width="20" height="20" fill="#0f0" stroke="#000" stroke-width="2"/>
  <rect x="170" y="200" width="20" height="20" fill="#00f" stroke="#000" stroke-width="2"/>
  <rect x="200" y="200" width="20" height="20" fill="#f90" stroke="#000" stroke-width="2"/>
  <rect x="230" y="200" width="20" height="20" fill="#0ff" stroke="#000" stroke-width="2"/>
  <rect x="260" y="200" width="20" height="20" fill="#f0f" stroke="#000" stroke-width="2"/>
  <rect x="290" y="200" width="20" height="20" fill="#fff" stroke="#000" stroke-width="2"/>

  <!-- Pads Row -->
  <rect x="350" y="100" width="200" height="40" fill="#444" stroke="#000" stroke-width="2"/>
  <text x="360" y="125" font-family="sans-serif" font-size="16" fill="#fff">Step Pads</text>
</svg>

