# Alias Wavefront OBJ File Exported from SketchUp
# with OBJexporter (c) 2010/2011 TIG
# Units = meters

mtllib d4.mtl

g d4_g_61725-Default_Material
usemtl Default_Material
v -2.791862 1.033333 -3.766210
v -2.748822 1.096667 -3.766210
v -1.531862 1.033333 -3.766210
v -2.791862 1.966667 -3.766210
v -2.748822 1.150444 -3.766210
v -2.748822 1.204222 -3.766210
v -1.574902 1.150444 -3.766210
v -2.748822 1.258000 -3.766210
v -2.748822 1.311778 -3.766210
v -1.574902 1.258000 -3.766210
v -2.748822 1.365556 -3.766210
v -2.748822 1.419333 -3.766210
v -1.574902 1.365556 -3.766210
v -2.748822 1.473111 -3.766210
v -2.748822 1.526889 -3.766210
v -1.574902 1.473111 -3.766210
v -2.748822 1.580667 -3.766210
v -2.748822 1.634444 -3.766210
v -1.574902 1.580667 -3.766210
v -2.748822 1.688222 -3.766210
v -2.748822 1.742000 -3.766210
v -1.574902 1.688222 -3.766210
v -2.748822 1.795778 -3.766210
v -2.748822 1.849556 -3.766210
v -1.574902 1.795778 -3.766210
v -2.748822 1.903333 -3.766210
v -1.574902 1.903333 -3.766210
v -1.574902 1.096667 -3.766210
v -1.531862 1.966667 -3.766210
v -1.574902 1.204222 -3.766210
v -1.574902 1.311778 -3.766210
v -1.574902 1.419333 -3.766210
v -1.574902 1.526889 -3.766210
v -1.574902 1.634444 -3.766210
v -1.574902 1.742000 -3.766210
v -1.574902 1.849556 -3.766210
v -1.531862 1.033333 -3.716210
v -1.574902 1.096667 -3.716210
v -2.791862 1.033333 -3.716210
v -1.531862 1.966667 -3.716210
v -2.748822 1.096667 -3.716210
v -1.574902 1.150444 -3.716210
v -1.574902 1.204222 -3.716210
v -2.748822 1.204222 -3.716210
v -1.574902 1.258000 -3.716210
v -1.574902 1.311778 -3.716210
v -2.748822 1.311778 -3.716210
v -1.574902 1.365556 -3.716210
v -1.574902 1.419333 -3.716210
v -2.748822 1.419333 -3.716210
v -1.574902 1.473111 -3.716210
v -1.574902 1.526889 -3.716210
v -2.748822 1.526889 -3.716210
v -1.574902 1.580667 -3.716210
v -1.574902 1.634444 -3.716210
v -2.748822 1.634444 -3.716210
v -1.574902 1.688222 -3.716210
v -1.574902 1.742000 -3.716210
v -2.748822 1.742000 -3.716210
v -1.574902 1.795778 -3.716210
v -1.574902 1.849556 -3.716210
v -2.748822 1.849556 -3.716210
v -1.574902 1.903333 -3.716210
v -2.748822 1.903333 -3.716210
v -2.791862 1.966667 -3.716210
v -2.748822 1.150444 -3.716210
v -2.748822 1.258000 -3.716210
v -2.748822 1.365556 -3.716210
v -2.748822 1.473111 -3.716210
v -2.748822 1.580667 -3.716210
v -2.748822 1.688222 -3.716210
v -2.748822 1.795778 -3.716210
v -1.531862 1.966667 -3.716210
v -2.791862 1.966667 -3.766210
v -2.791862 1.966667 -3.716210
v -1.531862 1.966667 -3.766210
v -1.531862 1.033333 -3.766210
v -1.531862 1.966667 -3.716210
v -1.531862 1.033333 -3.716210
v -1.531862 1.966667 -3.766210
v -1.531862 1.033333 -3.766210
v -2.791862 1.033333 -3.716210
v -2.791862 1.033333 -3.766210
v -1.531862 1.033333 -3.716210
v -2.791862 1.966667 -3.766210
v -2.791862 1.033333 -3.716210
v -2.791862 1.966667 -3.716210
v -2.791862 1.033333 -3.766210
v -1.574902 1.688222 -3.766210
v -2.748822 1.688222 -3.716210
v -2.748822 1.688222 -3.766210
v -1.574902 1.688222 -3.716210
v -2.748822 1.634444 -3.766210
v -2.748822 1.688222 -3.716210
v -2.748822 1.634444 -3.716210
v -2.748822 1.688222 -3.766210
v -1.574902 1.634444 -3.716210
v -2.748822 1.634444 -3.766210
v -2.748822 1.634444 -3.716210
v -1.574902 1.634444 -3.766210
v -1.574902 1.688222 -3.716210
v -1.574902 1.634444 -3.766210
v -1.574902 1.634444 -3.716210
v -1.574902 1.688222 -3.766210
v -1.574902 1.150444 -3.716210
v -1.574902 1.096667 -3.766210
v -1.574902 1.096667 -3.716210
v -1.574902 1.150444 -3.766210
v -1.574902 1.150444 -3.766210
v -2.748822 1.150444 -3.716210
v -2.748822 1.150444 -3.766210
v -1.574902 1.150444 -3.716210
v -2.748822 1.096667 -3.766210
v -2.748822 1.150444 -3.716210
v -2.748822 1.096667 -3.716210
v -2.748822 1.150444 -3.766210
v -1.574902 1.096667 -3.716210
v -2.748822 1.096667 -3.766210
v -2.748822 1.096667 -3.716210
v -1.574902 1.096667 -3.766210
v -1.574902 1.580667 -3.766210
v -2.748822 1.580667 -3.716210
v -2.748822 1.580667 -3.766210
v -1.574902 1.580667 -3.716210
v -2.748822 1.526889 -3.766210
v -2.748822 1.580667 -3.716210
v -2.748822 1.526889 -3.716210
v -2.748822 1.580667 -3.766210
v -1.574902 1.526889 -3.716210
v -2.748822 1.526889 -3.766210
v -2.748822 1.526889 -3.716210
v -1.574902 1.526889 -3.766210
v -1.574902 1.580667 -3.716210
v -1.574902 1.526889 -3.766210
v -1.574902 1.526889 -3.716210
v -1.574902 1.580667 -3.766210
v -1.574902 1.258000 -3.766210
v -2.748822 1.258000 -3.716210
v -2.748822 1.258000 -3.766210
v -1.574902 1.258000 -3.716210
v -2.748822 1.204222 -3.766210
v -2.748822 1.258000 -3.716210
v -2.748822 1.204222 -3.716210
v -2.748822 1.258000 -3.766210
v -1.574902 1.204222 -3.716210
v -2.748822 1.204222 -3.766210
v -2.748822 1.204222 -3.716210
v -1.574902 1.204222 -3.766210
v -1.574902 1.258000 -3.716210
v -1.574902 1.204222 -3.766210
v -1.574902 1.204222 -3.716210
v -1.574902 1.258000 -3.766210
v -1.574902 1.903333 -3.716210
v -1.574902 1.849556 -3.766210
v -1.574902 1.849556 -3.716210
v -1.574902 1.903333 -3.766210
v -1.574902 1.903333 -3.766210
v -2.748822 1.903333 -3.716210
v -2.748822 1.903333 -3.766210
v -1.574902 1.903333 -3.716210
v -2.748822 1.849556 -3.766210
v -2.748822 1.903333 -3.716210
v -2.748822 1.849556 -3.716210
v -2.748822 1.903333 -3.766210
v -1.574902 1.849556 -3.716210
v -2.748822 1.849556 -3.766210
v -2.748822 1.849556 -3.716210
v -1.574902 1.849556 -3.766210
v -1.574902 1.795778 -3.716210
v -1.574902 1.742000 -3.766210
v -1.574902 1.742000 -3.716210
v -1.574902 1.795778 -3.766210
v -1.574902 1.795778 -3.766210
v -2.748822 1.795778 -3.716210
v -2.748822 1.795778 -3.766210
v -1.574902 1.795778 -3.716210
v -2.748822 1.742000 -3.766210
v -2.748822 1.795778 -3.716210
v -2.748822 1.742000 -3.716210
v -2.748822 1.795778 -3.766210
v -1.574902 1.742000 -3.716210
v -2.748822 1.742000 -3.766210
v -2.748822 1.742000 -3.716210
v -1.574902 1.742000 -3.766210
v -1.574902 1.419333 -3.716210
v -2.748822 1.419333 -3.766210
v -2.748822 1.419333 -3.716210
v -1.574902 1.419333 -3.766210
v -1.574902 1.473111 -3.716210
v -1.574902 1.419333 -3.766210
v -1.574902 1.419333 -3.716210
v -1.574902 1.473111 -3.766210
v -1.574902 1.473111 -3.766210
v -2.748822 1.473111 -3.716210
v -2.748822 1.473111 -3.766210
v -1.574902 1.473111 -3.716210
v -2.748822 1.419333 -3.766210
v -2.748822 1.473111 -3.716210
v -2.748822 1.419333 -3.716210
v -2.748822 1.473111 -3.766210
v -1.574902 1.311778 -3.716210
v -2.748822 1.311778 -3.766210
v -2.748822 1.311778 -3.716210
v -1.574902 1.311778 -3.766210
v -1.574902 1.365556 -3.716210
v -1.574902 1.311778 -3.766210
v -1.574902 1.311778 -3.716210
v -1.574902 1.365556 -3.766210
v -1.574902 1.365556 -3.766210
v -2.748822 1.365556 -3.716210
v -2.748822 1.365556 -3.766210
v -1.574902 1.365556 -3.716210
v -2.748822 1.311778 -3.766210
v -2.748822 1.365556 -3.716210
v -2.748822 1.311778 -3.716210
v -2.748822 1.365556 -3.766210
vn -0.000000 -0.000000 -1.000000
vn -0.000000 -0.000000 -1.000000
vn -0.000000 -0.000000 -1.000000
vn -0.000000 -0.000000 -1.000000
vn -0.000000 -0.000000 -1.000000
vn -0.000000 -0.000000 -1.000000
vn -0.000000 -0.000000 -1.000000
vn -0.000000 -0.000000 -1.000000
vn -0.000000 -0.000000 -1.000000
vn -0.000000 -0.000000 -1.000000
vn -0.000000 -0.000000 -1.000000
vn -0.000000 -0.000000 -1.000000
vn -0.000000 -0.000000 -1.000000
vn -0.000000 -0.000000 -1.000000
vn -0.000000 -0.000000 -1.000000
vn -0.000000 -0.000000 -1.000000
vn -0.000000 -0.000000 -1.000000
vn -0.000000 -0.000000 -1.000000
vn -0.000000 -0.000000 -1.000000
vn -0.000000 -0.000000 -1.000000
vn -0.000000 -0.000000 -1.000000
vn -0.000000 -0.000000 -1.000000
vn -0.000000 -0.000000 -1.000000
vn -0.000000 -0.000000 -1.000000
vn -0.000000 -0.000000 -1.000000
vn -0.000000 -0.000000 -1.000000
vn -0.000000 -0.000000 -1.000000
vn -0.000000 -0.000000 -1.000000
vn -0.000000 -0.000000 -1.000000
vn -0.000000 -0.000000 -1.000000
vn -0.000000 -0.000000 -1.000000
vn -0.000000 -0.000000 -1.000000
vn -0.000000 -0.000000 -1.000000
vn -0.000000 -0.000000 -1.000000
vn -0.000000 -0.000000 -1.000000
vn -0.000000 -0.000000 -1.000000
vn 0.000000 0.000000 1.000000
vn 0.000000 0.000000 1.000000
vn 0.000000 0.000000 1.000000
vn 0.000000 0.000000 1.000000
vn 0.000000 0.000000 1.000000
vn 0.000000 0.000000 1.000000
vn 0.000000 0.000000 1.000000
vn 0.000000 0.000000 1.000000
vn 0.000000 0.000000 1.000000
vn 0.000000 0.000000 1.000000
vn 0.000000 0.000000 1.000000
vn 0.000000 0.000000 1.000000
vn 0.000000 0.000000 1.000000
vn 0.000000 0.000000 1.000000
vn 0.000000 0.000000 1.000000
vn 0.000000 0.000000 1.000000
vn 0.000000 0.000000 1.000000
vn 0.000000 0.000000 1.000000
vn 0.000000 0.000000 1.000000
vn 0.000000 0.000000 1.000000
vn 0.000000 0.000000 1.000000
vn 0.000000 0.000000 1.000000
vn 0.000000 0.000000 1.000000
vn 0.000000 0.000000 1.000000
vn 0.000000 0.000000 1.000000
vn 0.000000 0.000000 1.000000
vn 0.000000 0.000000 1.000000
vn 0.000000 0.000000 1.000000
vn 0.000000 0.000000 1.000000
vn 0.000000 0.000000 1.000000
vn 0.000000 0.000000 1.000000
vn 0.000000 0.000000 1.000000
vn 0.000000 0.000000 1.000000
vn 0.000000 0.000000 1.000000
vn 0.000000 0.000000 1.000000
vn 0.000000 0.000000 1.000000
vn -0.000000 1.000000 -0.000000
vn -0.000000 1.000000 -0.000000
vn -0.000000 1.000000 -0.000000
vn -0.000000 1.000000 -0.000000
vn 1.000000 -0.000000 -0.000000
vn 1.000000 -0.000000 -0.000000
vn 1.000000 -0.000000 -0.000000
vn 1.000000 -0.000000 -0.000000
vn 0.000000 -1.000000 0.000000
vn 0.000000 -1.000000 0.000000
vn 0.000000 -1.000000 0.000000
vn 0.000000 -1.000000 0.000000
vn -1.000000 -0.000000 0.000000
vn -1.000000 -0.000000 0.000000
vn -1.000000 -0.000000 0.000000
vn -1.000000 -0.000000 0.000000
vn 0.000000 -1.000000 0.000000
vn 0.000000 -1.000000 0.000000
vn 0.000000 -1.000000 0.000000
vn 0.000000 -1.000000 0.000000
vn 1.000000 0.000000 -0.000000
vn 1.000000 0.000000 -0.000000
vn 1.000000 0.000000 -0.000000
vn 1.000000 0.000000 -0.000000
vn -0.000000 1.000000 -0.000000
vn -0.000000 1.000000 -0.000000
vn -0.000000 1.000000 -0.000000
vn -0.000000 1.000000 -0.000000
vn -1.000000 -0.000000 0.000000
vn -1.000000 -0.000000 0.000000
vn -1.000000 -0.000000 0.000000
vn -1.000000 -0.000000 0.000000
vn -1.000000 -0.000000 0.000000
vn -1.000000 -0.000000 0.000000
vn -1.000000 -0.000000 0.000000
vn -1.000000 -0.000000 0.000000
vn 0.000000 -1.000000 0.000000
vn 0.000000 -1.000000 0.000000
vn 0.000000 -1.000000 0.000000
vn 0.000000 -1.000000 0.000000
vn 1.000000 0.000000 -0.000000
vn 1.000000 0.000000 -0.000000
vn 1.000000 0.000000 -0.000000
vn 1.000000 0.000000 -0.000000
vn -0.000000 1.000000 -0.000000
vn -0.000000 1.000000 -0.000000
vn -0.000000 1.000000 -0.000000
vn -0.000000 1.000000 -0.000000
vn 0.000000 -1.000000 0.000000
vn 0.000000 -1.000000 0.000000
vn 0.000000 -1.000000 0.000000
vn 0.000000 -1.000000 0.000000
vn 1.000000 0.000000 -0.000000
vn 1.000000 0.000000 -0.000000
vn 1.000000 0.000000 -0.000000
vn 1.000000 0.000000 -0.000000
vn -0.000000 1.000000 -0.000000
vn -0.000000 1.000000 -0.000000
vn -0.000000 1.000000 -0.000000
vn -0.000000 1.000000 -0.000000
vn -1.000000 -0.000000 0.000000
vn -1.000000 -0.000000 0.000000
vn -1.000000 -0.000000 0.000000
vn -1.000000 -0.000000 0.000000
vn 0.000000 -1.000000 0.000000
vn 0.000000 -1.000000 0.000000
vn 0.000000 -1.000000 0.000000
vn 0.000000 -1.000000 0.000000
vn 1.000000 0.000000 -0.000000
vn 1.000000 0.000000 -0.000000
vn 1.000000 0.000000 -0.000000
vn 1.000000 0.000000 -0.000000
vn -0.000000 1.000000 -0.000000
vn -0.000000 1.000000 -0.000000
vn -0.000000 1.000000 -0.000000
vn -0.000000 1.000000 -0.000000
vn -1.000000 -0.000000 0.000000
vn -1.000000 -0.000000 0.000000
vn -1.000000 -0.000000 0.000000
vn -1.000000 -0.000000 0.000000
vn -1.000000 -0.000000 0.000000
vn -1.000000 -0.000000 0.000000
vn -1.000000 -0.000000 0.000000
vn -1.000000 -0.000000 0.000000
vn 0.000000 -1.000000 0.000000
vn 0.000000 -1.000000 0.000000
vn 0.000000 -1.000000 0.000000
vn 0.000000 -1.000000 0.000000
vn 1.000000 0.000000 -0.000000
vn 1.000000 0.000000 -0.000000
vn 1.000000 0.000000 -0.000000
vn 1.000000 0.000000 -0.000000
vn -0.000000 1.000000 -0.000000
vn -0.000000 1.000000 -0.000000
vn -0.000000 1.000000 -0.000000
vn -0.000000 1.000000 -0.000000
vn -1.000000 -0.000000 0.000000
vn -1.000000 -0.000000 0.000000
vn -1.000000 -0.000000 0.000000
vn -1.000000 -0.000000 0.000000
vn 0.000000 -1.000000 0.000000
vn 0.000000 -1.000000 0.000000
vn 0.000000 -1.000000 0.000000
vn 0.000000 -1.000000 0.000000
vn 1.000000 0.000000 -0.000000
vn 1.000000 0.000000 -0.000000
vn 1.000000 0.000000 -0.000000
vn 1.000000 0.000000 -0.000000
vn -0.000000 1.000000 -0.000000
vn -0.000000 1.000000 -0.000000
vn -0.000000 1.000000 -0.000000
vn -0.000000 1.000000 -0.000000
vn -0.000000 1.000000 -0.000000
vn -0.000000 1.000000 -0.000000
vn -0.000000 1.000000 -0.000000
vn -0.000000 1.000000 -0.000000
vn -1.000000 -0.000000 0.000000
vn -1.000000 -0.000000 0.000000
vn -1.000000 -0.000000 0.000000
vn -1.000000 -0.000000 0.000000
vn 0.000000 -1.000000 0.000000
vn 0.000000 -1.000000 0.000000
vn 0.000000 -1.000000 0.000000
vn 0.000000 -1.000000 0.000000
vn 1.000000 0.000000 -0.000000
vn 1.000000 0.000000 -0.000000
vn 1.000000 0.000000 -0.000000
vn 1.000000 0.000000 -0.000000
vn -0.000000 1.000000 -0.000000
vn -0.000000 1.000000 -0.000000
vn -0.000000 1.000000 -0.000000
vn -0.000000 1.000000 -0.000000
vn -1.000000 -0.000000 0.000000
vn -1.000000 -0.000000 0.000000
vn -1.000000 -0.000000 0.000000
vn -1.000000 -0.000000 0.000000
vn 0.000000 -1.000000 0.000000
vn 0.000000 -1.000000 0.000000
vn 0.000000 -1.000000 0.000000
vn 0.000000 -1.000000 0.000000
vn 1.000000 0.000000 -0.000000
vn 1.000000 0.000000 -0.000000
vn 1.000000 0.000000 -0.000000
vn 1.000000 0.000000 -0.000000
vt -0.000000 0.000000
vt -1.694488 2.493438
vt -49.606299 -0.000000
vt -0.000000 36.745407
vt -1.694488 4.610674
vt -1.694488 6.727909
vt -47.911811 4.610674
vt -1.694488 8.845144
vt -1.694488 10.962380
vt -47.911811 8.845144
vt -1.694488 13.079615
vt -1.694488 15.196850
vt -47.911811 13.079615
vt -1.694488 17.314086
vt -1.694488 19.431321
vt -47.911811 17.314086
vt -1.694488 21.548556
vt -1.694488 23.665792
vt -47.911811 21.548556
vt -1.694488 25.783027
vt -1.694488 27.900262
vt -47.911811 25.783027
vt -1.694488 30.017498
vt -1.694488 32.134733
vt -47.911811 30.017498
vt -1.694488 34.251969
vt -47.911811 34.251969
vt -47.911811 2.493438
vt -49.606299 36.745407
vt -47.911811 6.727909
vt -47.911811 10.962380
vt -47.911811 15.196850
vt -47.911811 19.431321
vt -47.911811 23.665792
vt -47.911811 27.900262
vt -47.911811 32.134733
vt 49.606299 -0.000000
vt 47.911811 2.493438
vt 0.000000 -0.000000
vt 49.606299 36.745407
vt 1.694488 2.493438
vt 47.911811 4.610674
vt 47.911811 6.727909
vt 1.694488 6.727909
vt 47.911811 8.845144
vt 47.911811 10.962380
vt 1.694488 10.962380
vt 47.911811 13.079615
vt 47.911811 15.196850
vt 1.694488 15.196850
vt 47.911811 17.314086
vt 47.911811 19.431321
vt 1.694488 19.431321
vt 47.911811 21.548556
vt 47.911811 23.665792
vt 1.694488 23.665792
vt 47.911811 25.783027
vt 47.911811 27.900262
vt 1.694488 27.900262
vt 47.911811 30.017498
vt 47.911811 32.134733
vt 1.694488 32.134733
vt 47.911811 34.251969
vt 1.694488 34.251969
vt -0.000000 36.745407
vt 1.694488 4.610674
vt 1.694488 8.845144
vt 1.694488 13.079615
vt 1.694488 17.314086
vt 1.694488 21.548556
vt 1.694488 25.783027
vt 1.694488 30.017498
vt 49.606299 -1.968504
vt 0.000000 -0.000000
vt 0.000000 -1.968504
vt 49.606299 0.000000
vt -0.000000 0.000000
vt -1.968504 36.745407
vt -1.968504 0.000000
vt 0.000000 36.745407
vt -49.606299 0.000000
vt -0.000000 -1.968504
vt -0.000000 0.000000
vt -49.606299 -1.968504
vt -0.000000 36.745407
vt 1.968504 -0.000000
vt 1.968504 36.745407
vt -0.000000 -0.000000
vt -47.911811 0.000000
vt -1.694488 -1.968504
vt -1.694488 -0.000000
vt -47.911811 -1.968504
vt 0.000000 23.665792
vt -1.968504 25.783027
vt -1.968504 23.665792
vt 0.000000 25.783027
vt 47.911811 -1.968504
vt 1.694488 -0.000000
vt 1.694488 -1.968504
vt 47.911811 0.000000
vt 1.968504 25.783027
vt -0.000000 23.665792
vt 1.968504 23.665792
vt -0.000000 25.783027
vt 1.968504 4.610674
vt 0.000000 2.493438
vt 1.968504 2.493438
vt 0.000000 4.610674
vt -47.911811 0.000000
vt -1.694488 -1.968504
vt -1.694488 -0.000000
vt -47.911811 -1.968504
vt -0.000000 2.493438
vt -1.968504 4.610674
vt -1.968504 2.493438
vt -0.000000 4.610674
vt 47.911811 -1.968504
vt 1.694488 -0.000000
vt 1.694488 -1.968504
vt 47.911811 0.000000
vt -47.911811 0.000000
vt -1.694488 -1.968504
vt -1.694488 -0.000000
vt -47.911811 -1.968504
vt 0.000000 19.431321
vt -1.968504 21.548556
vt -1.968504 19.431321
vt 0.000000 21.548556
vt 47.911811 -1.968504
vt 1.694488 -0.000000
vt 1.694488 -1.968504
vt 47.911811 0.000000
vt 1.968504 21.548556
vt -0.000000 19.431321
vt 1.968504 19.431321
vt -0.000000 21.548556
vt -47.911811 0.000000
vt -1.694488 -1.968504
vt -1.694488 -0.000000
vt -47.911811 -1.968504
vt 0.000000 6.727909
vt -1.968504 8.845144
vt -1.968504 6.727909
vt 0.000000 8.845144
vt 47.911811 -1.968504
vt 1.694488 -0.000000
vt 1.694488 -1.968504
vt 47.911811 0.000000
vt 1.968504 8.845144
vt 0.000000 6.727909
vt 1.968504 6.727909
vt 0.000000 8.845144
vt 1.968504 34.251969
vt -0.000000 32.134733
vt 1.968504 32.134733
vt -0.000000 34.251969
vt -47.911811 0.000000
vt -1.694488 -1.968504
vt -1.694488 -0.000000
vt -47.911811 -1.968504
vt 0.000000 32.134733
vt -1.968504 34.251969
vt -1.968504 32.134733
vt 0.000000 34.251969
vt 47.911811 -1.968504
vt 1.694488 -0.000000
vt 1.694488 -1.968504
vt 47.911811 0.000000
vt 1.968504 30.017498
vt -0.000000 27.900262
vt 1.968504 27.900262
vt -0.000000 30.017498
vt -47.911811 0.000000
vt -1.694488 -1.968504
vt -1.694488 -0.000000
vt -47.911811 -1.968504
vt 0.000000 27.900262
vt -1.968504 30.017498
vt -1.968504 27.900262
vt 0.000000 30.017498
vt 47.911811 -1.968504
vt 1.694488 -0.000000
vt 1.694488 -1.968504
vt 47.911811 0.000000
vt 47.911811 -1.968504
vt 1.694488 -0.000000
vt 1.694488 -1.968504
vt 47.911811 0.000000
vt 1.968504 17.314086
vt -0.000000 15.196850
vt 1.968504 15.196850
vt -0.000000 17.314086
vt -47.911811 0.000000
vt -1.694488 -1.968504
vt -1.694488 -0.000000
vt -47.911811 -1.968504
vt 0.000000 15.196850
vt -1.968504 17.314086
vt -1.968504 15.196850
vt 0.000000 17.314086
vt 47.911811 -1.968504
vt 1.694488 -0.000000
vt 1.694488 -1.968504
vt 47.911811 0.000000
vt 1.968504 13.079615
vt -0.000000 10.962380
vt 1.968504 10.962380
vt -0.000000 13.079615
vt -47.911811 0.000000
vt -1.694488 -1.968504
vt -1.694488 -0.000000
vt -47.911811 -1.968504
vt 0.000000 10.962380
vt -1.968504 13.079615
vt -1.968504 10.962380
vt 0.000000 13.079615
f 1/1/1 2/2/2 3/3/3
f 2/2/2 1/1/1 4/4/4
f 2/2/2 4/4/4 5/5/5
f 5/5/5 4/4/4 6/6/6
f 5/5/5 6/6/6 7/7/7
f 6/6/6 4/4/4 8/8/8
f 8/8/8 4/4/4 9/9/9
f 8/8/8 9/9/9 10/10/10
f 9/9/9 4/4/4 11/11/11
f 11/11/11 4/4/4 12/12/12
f 11/11/11 12/12/12 13/13/13
f 12/12/12 4/4/4 14/14/14
f 14/14/14 4/4/4 15/15/15
f 14/14/14 15/15/15 16/16/16
f 15/15/15 4/4/4 17/17/17
f 17/17/17 4/4/4 18/18/18
f 17/17/17 18/18/18 19/19/19
f 18/18/18 4/4/4 20/20/20
f 20/20/20 4/4/4 21/21/21
f 20/20/20 21/21/21 22/22/22
f 21/21/21 4/4/4 23/23/23
f 23/23/23 4/4/4 24/24/24
f 23/23/23 24/24/24 25/25/25
f 24/24/24 4/4/4 26/26/26
f 26/26/26 4/4/4 27/27/27
f 3/3/3 28/28/28 29/29/29
f 28/28/28 3/3/3 2/2/2
f 29/29/29 28/28/28 7/7/7
f 29/29/29 7/7/7 30/30/30
f 30/30/30 7/7/7 6/6/6
f 29/29/29 30/30/30 10/10/10
f 29/29/29 10/10/10 31/31/31
f 31/31/31 10/10/10 9/9/9
f 29/29/29 31/31/31 13/13/13
f 29/29/29 13/13/13 32/32/32
f 32/32/32 13/13/13 12/12/12
f 29/29/29 32/32/32 16/16/16
f 29/29/29 16/16/16 33/33/33
f 33/33/33 16/16/16 15/15/15
f 29/29/29 33/33/33 19/19/19
f 29/29/29 19/19/19 34/34/34
f 34/34/34 19/19/19 18/18/18
f 29/29/29 34/34/34 22/22/22
f 29/29/29 22/22/22 35/35/35
f 35/35/35 22/22/22 21/21/21
f 29/29/29 35/35/35 25/25/25
f 29/29/29 25/25/25 36/36/36
f 36/36/36 25/25/25 24/24/24
f 29/29/29 36/36/36 27/27/27
f 29/29/29 27/27/27 4/4/4
f 37/37/37 38/38/38 39/39/39
f 38/38/38 37/37/37 40/40/40
f 39/39/39 38/38/38 41/41/41
f 38/38/38 40/40/40 42/42/42
f 42/42/42 40/40/40 43/43/43
f 42/42/42 43/43/43 44/44/44
f 43/43/43 40/40/40 45/45/45
f 45/45/45 40/40/40 46/46/46
f 45/45/45 46/46/46 47/47/47
f 46/46/46 40/40/40 48/48/48
f 48/48/48 40/40/40 49/49/49
f 48/48/48 49/49/49 50/50/50
f 49/49/49 40/40/40 51/51/51
f 51/51/51 40/40/40 52/52/52
f 51/51/51 52/52/52 53/53/53
f 52/52/52 40/40/40 54/54/54
f 54/54/54 40/40/40 55/55/55
f 54/54/54 55/55/55 56/56/56
f 55/55/55 40/40/40 57/57/57
f 57/57/57 40/40/40 58/58/58
f 57/57/57 58/58/58 59/59/59
f 58/58/58 40/40/40 60/60/60
f 60/60/60 40/40/40 61/61/61
f 60/60/60 61/61/61 62/62/62
f 61/61/61 40/40/40 63/63/63
f 63/63/63 40/40/40 64/64/64
f 41/41/41 65/65/65 39/39/39
f 65/65/65 41/41/41 66/66/66
f 65/65/65 66/66/66 44/44/44
f 44/44/44 66/66/66 42/42/42
f 65/65/65 44/44/44 67/67/67
f 65/65/65 67/67/67 47/47/47
f 47/47/47 67/67/67 45/45/45
f 65/65/65 47/47/47 68/68/68
f 65/65/65 68/68/68 50/50/50
f 50/50/50 68/68/68 48/48/48
f 65/65/65 50/50/50 69/69/69
f 65/65/65 69/69/69 53/53/53
f 53/53/53 69/69/69 51/51/51
f 65/65/65 53/53/53 70/70/70
f 65/65/65 70/70/70 56/56/56
f 56/56/56 70/70/70 54/54/54
f 65/65/65 56/56/56 71/71/71
f 65/65/65 71/71/71 59/59/59
f 59/59/59 71/71/71 57/57/57
f 65/65/65 59/59/59 72/72/72
f 65/65/65 72/72/72 62/62/62
f 62/62/62 72/72/72 60/60/60
f 65/65/65 62/62/62 64/64/64
f 65/65/65 64/64/64 40/40/40
f 73/73/73 74/74/74 75/75/75
f 74/74/74 73/73/73 76/76/76
f 77/77/77 78/78/78 79/79/79
f 78/78/78 77/77/77 80/80/80
f 81/81/81 82/82/82 83/83/83
f 82/82/82 81/81/81 84/84/84
f 85/85/85 86/86/86 87/87/87
f 86/86/86 85/85/85 88/88/88
f 89/89/89 90/90/90 91/91/91
f 90/90/90 89/89/89 92/92/92
f 93/93/93 94/94/94 95/95/95
f 94/94/94 93/93/93 96/96/96
f 97/97/97 98/98/98 99/99/99
f 98/98/98 97/97/97 100/100/100
f 101/101/101 102/102/102 103/103/103
f 102/102/102 101/101/101 104/104/104
f 105/105/105 106/106/106 107/107/107
f 106/106/106 105/105/105 108/108/108
f 109/109/109 110/110/110 111/111/111
f 110/110/110 109/109/109 112/112/112
f 113/113/113 114/114/114 115/115/115
f 114/114/114 113/113/113 116/116/116
f 117/117/117 118/118/118 119/119/119
f 118/118/118 117/117/117 120/120/120
f 121/121/121 122/122/122 123/123/123
f 122/122/122 121/121/121 124/124/124
f 125/125/125 126/126/126 127/127/127
f 126/126/126 125/125/125 128/128/128
f 129/129/129 130/130/130 131/131/131
f 130/130/130 129/129/129 132/132/132
f 133/133/133 134/134/134 135/135/135
f 134/134/134 133/133/133 136/136/136
f 137/137/137 138/138/138 139/139/139
f 138/138/138 137/137/137 140/140/140
f 141/141/141 142/142/142 143/143/143
f 142/142/142 141/141/141 144/144/144
f 145/145/145 146/146/146 147/147/147
f 146/146/146 145/145/145 148/148/148
f 149/149/149 150/150/150 151/151/151
f 150/150/150 149/149/149 152/152/152
f 153/153/153 154/154/154 155/155/155
f 154/154/154 153/153/153 156/156/156
f 157/157/157 158/158/158 159/159/159
f 158/158/158 157/157/157 160/160/160
f 161/161/161 162/162/162 163/163/163
f 162/162/162 161/161/161 164/164/164
f 165/165/165 166/166/166 167/167/167
f 166/166/166 165/165/165 168/168/168
f 169/169/169 170/170/170 171/171/171
f 170/170/170 169/169/169 172/172/172
f 173/173/173 174/174/174 175/175/175
f 174/174/174 173/173/173 176/176/176
f 177/177/177 178/178/178 179/179/179
f 178/178/178 177/177/177 180/180/180
f 181/181/181 182/182/182 183/183/183
f 182/182/182 181/181/181 184/184/184
f 185/185/185 186/186/186 187/187/187
f 186/186/186 185/185/185 188/188/188
f 189/189/189 190/190/190 191/191/191
f 190/190/190 189/189/189 192/192/192
f 193/193/193 194/194/194 195/195/195
f 194/194/194 193/193/193 196/196/196
f 197/197/197 198/198/198 199/199/199
f 198/198/198 197/197/197 200/200/200
f 201/201/201 202/202/202 203/203/203
f 202/202/202 201/201/201 204/204/204
f 205/205/205 206/206/206 207/207/207
f 206/206/206 205/205/205 208/208/208
f 209/209/209 210/210/210 211/211/211
f 210/210/210 209/209/209 212/212/212
f 213/213/213 214/214/214 215/215/215
f 214/214/214 213/213/213 216/216/216

