# 
# Wavefront OBJ file
# Converted by the DEEP Exploration Deep Exploration 5 5.0.1.1419 Release
# Right Hemisphere, LTD
# http://www.righthemisphere.com/
# 
mtllib slf_geometrix5.mtl
# object cube1_defa
g cube1_defa
v -1.00000 -1.00000 -1.00000
v -0.35400 0.35400 -1.00000
v -1.00000 1.00000 -1.00000
v -0.35400 -0.35400 -1.00000
v 0.35400 -1.00000 -0.35400
v 1.00000 -1.00000 -1.00000
v -0.35400 -1.00000 -0.35400
v -1.00000 -0.35400 0.35400
v -1.00000 -1.00000 1.00000
v -1.00000 -0.35400 -0.35400
v 0.35400 0.35400 -1.00000
v 1.00000 1.00000 -1.00000
v -0.35400 1.00000 0.35400
v -1.00000 1.00000 1.00000
v -0.35400 1.00000 -0.35400
v -1.00000 0.35400 -0.35400
v 0.35400 -0.35400 -1.00000
v 1.00000 0.35400 0.35400
v 1.00000 1.00000 1.00000
v 1.00000 0.35400 -0.35400
v 0.35400 1.00000 -0.35400
v 1.00000 -0.35400 -0.35400
v 0.35400 -1.00000 0.35400
v 1.00000 -1.00000 1.00000
v -0.35400 -1.00000 0.35400
v 0.35400 -0.35400 1.00000
v -0.35400 -0.35400 1.00000
v -1.00000 0.35400 0.35400
v 0.35400 1.00000 0.35400
v -0.35400 0.35400 1.00000
v 1.00000 -0.35400 0.35400
v 0.35400 0.35400 1.00000
v 1.33954 1.33954 -3.96960
v -1.33954 1.33954 -3.96960
v -1.33954 -1.33954 -3.96960
v 1.33954 -1.33954 -3.96960
v 3.96960 1.33954 1.33954
v 3.96960 1.33954 -1.33954
v 3.96960 -1.33954 -1.33954
v 3.96960 -1.33954 1.33954
v 1.33954 -3.96960 1.33954
v 1.33954 -3.96960 -1.33954
v -1.33954 -3.96960 -1.33954
v -1.33954 -3.96960 1.33954
v -1.33954 3.96960 1.33954
v -1.33954 3.96960 -1.33954
v 1.33954 3.96960 -1.33954
v 1.33954 3.96960 1.33954
v 1.33954 -1.33954 3.96960
v -1.33954 -1.33954 3.96960
v -1.33954 1.33954 3.96960
v 1.33954 1.33954 3.96960
v -3.96960 -1.33954 1.33954
v -3.96960 -1.33954 -1.33954
v -3.96960 1.33954 -1.33954
v -3.96960 1.33954 1.33954
v 0.82248 0.82248 -3.96960
v -0.82248 0.82248 -3.96960
v -0.82248 -0.82248 -3.96960
v 0.82248 -0.82248 -3.96960
v 3.96960 0.82248 0.82248
v 3.96960 0.82248 -0.82248
v 3.96960 -0.82248 -0.82248
v 3.96960 -0.82248 0.82248
v 0.82248 -3.96960 0.82248
v 0.82248 -3.96960 -0.82248
v -0.82248 -3.96960 -0.82248
v -0.82248 -3.96960 0.82248
v -0.82248 3.96960 0.82248
v -0.82248 3.96960 -0.82248
v 0.82248 3.96960 -0.82248
v 0.82248 3.96960 0.82248
v 0.82248 -0.82248 3.96960
v -0.82248 -0.82248 3.96960
v -0.82248 0.82248 3.96960
v 0.82248 0.82248 3.96960
v -3.96960 -0.82248 0.82248
v -3.96960 -0.82248 -0.82248
v -3.96960 0.82248 -0.82248
v -3.96960 0.82248 0.82248
v 1.19752 1.19752 -5.09395
v -1.19752 1.19752 -5.09395
v -1.19752 -1.19752 -5.09395
v 1.19752 -1.19752 -5.09395
v 5.09395 1.19752 1.19752
v 5.09395 1.19752 -1.19752
v 5.09395 -1.19752 -1.19752
v 5.09395 -1.19752 1.19752
v 1.19752 -5.09395 1.19752
v 1.19752 -5.09395 -1.19752
v -1.19752 -5.09395 -1.19752
v -1.19752 -5.09395 1.19752
v -1.19752 5.09395 1.19752
v -1.19752 5.09395 -1.19752
v 1.19752 5.09395 -1.19752
v 1.19752 5.09395 1.19752
v 1.19752 -1.19752 5.09395
v -1.19752 -1.19752 5.09395
v -1.19752 1.19752 5.09395
v 1.19752 1.19752 5.09395
v -5.09395 -1.19752 1.19752
v -5.09395 -1.19752 -1.19752
v -5.09395 1.19752 -1.19752
v -5.09395 1.19752 1.19752
v 0.54128 0.54128 -5.09395
v -0.54128 0.54128 -5.09395
v -0.54128 -0.54128 -5.09395
v 0.54128 -0.54128 -5.09395
v 5.09395 0.54128 0.54128
v 5.09395 0.54128 -0.54128
v 5.09395 -0.54128 -0.54128
v 5.09395 -0.54128 0.54128
v 0.54128 -5.09395 0.54128
v 0.54128 -5.09395 -0.54128
v -0.54128 -5.09395 -0.54128
v -0.54128 -5.09395 0.54128
v -0.54128 5.09395 0.54128
v -0.54128 5.09395 -0.54128
v 0.54128 5.09395 -0.54128
v 0.54128 5.09395 0.54128
v 0.54128 -0.54128 5.09395
v -0.54128 -0.54128 5.09395
v -0.54128 0.54128 5.09395
v 0.54128 0.54128 5.09395
v -5.09395 -0.54128 0.54128
v -5.09395 -0.54128 -0.54128
v -5.09395 0.54128 -0.54128
v -5.09395 0.54128 0.54128
v 0.00000 0.00000 -8.10205
v 8.10205 0.00000 0.00000
v 0.00000 -8.10205 -0.00000
v 0.00000 8.10205 0.00000
v 0.00000 -0.00000 8.10205
v -8.10205 0.00000 0.00000
# 134 verticies
vn -0.57735 -0.57735 -0.57735
vn -0.32127 0.64255 -0.69564
vn -0.57735 0.57735 -0.57735
vn -0.64255 -0.32127 -0.69564
vn 0.64255 -0.69564 -0.32127
vn 0.57735 -0.57735 -0.57735
vn -0.32127 -0.69564 -0.64255
vn -0.69564 -0.32127 0.64255
vn -0.57735 -0.57735 0.57735
vn -0.69564 -0.64255 -0.32127
vn 0.64255 0.32127 -0.69564
vn 0.57735 0.57735 -0.57735
vn -0.32127 0.69564 0.64255
vn -0.57735 0.57735 0.57735
vn -0.64255 0.69564 -0.32127
vn -0.69564 0.32127 -0.64255
vn 0.32127 -0.64255 -0.69564
vn 0.69564 0.32127 0.64255
vn 0.57735 0.57735 0.57735
vn 0.69564 0.64255 -0.32127
vn 0.32127 0.69564 -0.64255
vn 0.69564 -0.32127 -0.64255
vn 0.32127 -0.69564 0.64255
vn 0.57735 -0.57735 0.57735
vn -0.64255 -0.69564 0.32127
vn 0.64255 -0.32127 0.69564
vn -0.32127 -0.64255 0.69564
vn -0.69564 0.64255 0.32127
vn 0.64255 0.69564 0.32127
vn -0.64255 0.32127 0.69564
vn 0.69564 -0.64255 0.32127
vn 0.32127 0.64255 0.69564
vn 0.32127 0.64255 -0.69564
vn -0.64255 0.32127 -0.69564
vn -0.32127 -0.64255 -0.69564
vn 0.64255 -0.32127 -0.69564
vn 0.69564 0.64255 0.32127
vn 0.69564 0.32127 -0.64255
vn 0.69564 -0.64255 -0.32127
vn 0.69564 -0.32127 0.64255
vn 0.64255 -0.69564 0.32127
vn 0.32127 -0.69564 -0.64255
vn -0.64255 -0.69564 -0.32127
vn -0.32127 -0.69564 0.64255
vn -0.64255 0.69564 0.32127
vn -0.32127 0.69564 -0.64255
vn 0.64255 0.69564 -0.32127
vn 0.32127 0.69564 0.64255
vn 0.32127 -0.64255 0.69564
vn -0.64255 -0.32127 0.69564
vn -0.32127 0.64255 0.69564
vn 0.64255 0.32127 0.69564
vn -0.69564 -0.64255 0.32127
vn -0.69564 -0.32127 -0.64255
vn -0.69564 0.64255 -0.32127
vn -0.69564 0.32127 0.64255
vn 0.64305 0.32152 -0.69507
vn -0.32152 0.64305 -0.69507
vn -0.64305 -0.32152 -0.69507
vn 0.32152 -0.64305 -0.69507
vn 0.69507 0.32152 0.64305
vn 0.69507 0.64305 -0.32152
vn 0.69507 -0.32152 -0.64305
vn 0.69507 -0.64305 0.32152
vn 0.32152 -0.69507 0.64305
vn 0.64305 -0.69507 -0.32152
vn -0.32152 -0.69507 -0.64305
vn -0.64305 -0.69507 0.32152
vn -0.32152 0.69507 0.64305
vn -0.64305 0.69507 -0.32152
vn 0.32152 0.69507 -0.64305
vn 0.64305 0.69507 0.32152
vn 0.64305 -0.32152 0.69507
vn -0.32152 -0.64305 0.69507
vn -0.64305 0.32152 0.69507
vn 0.32152 0.64305 0.69507
vn -0.69507 -0.32152 0.64305
vn -0.69507 -0.64305 -0.32152
vn -0.69507 0.32152 -0.64305
vn -0.69507 0.64305 0.32152
vn 0.32152 0.64305 -0.69507
vn -0.64305 0.32152 -0.69507
vn -0.32152 -0.64305 -0.69507
vn 0.64305 -0.32152 -0.69507
vn 0.69507 0.64305 0.32152
vn 0.69507 0.32152 -0.64305
vn 0.69507 -0.64305 -0.32152
vn 0.69507 -0.32152 0.64305
vn 0.64305 -0.69507 0.32152
vn 0.32152 -0.69507 -0.64305
vn -0.64305 -0.69507 -0.32152
vn -0.32152 -0.69507 0.64305
vn -0.64305 0.69507 0.32152
vn -0.32152 0.69507 -0.64305
vn 0.64305 0.69507 -0.32152
vn 0.32152 0.69507 0.64305
vn 0.32152 -0.64305 0.69507
vn -0.64305 -0.32152 0.69507
vn -0.32152 0.64305 0.69507
vn 0.64305 0.32152 0.69507
vn -0.69507 -0.64305 0.32152
vn -0.69507 -0.32152 -0.64305
vn -0.69507 0.64305 -0.32152
vn -0.69507 0.32152 0.64305
vn 0.27101 0.27101 -0.92364
vn -0.27101 0.27101 -0.92364
vn -0.27101 -0.27101 -0.92364
vn 0.27101 -0.27101 -0.92364
vn 0.92364 0.27101 0.27101
vn 0.92364 0.27101 -0.27101
vn 0.92364 -0.27101 -0.27101
vn 0.92364 -0.27101 0.27101
vn 0.27101 -0.92364 0.27101
vn 0.27101 -0.92364 -0.27101
vn -0.27101 -0.92364 -0.27101
vn -0.27101 -0.92364 0.27101
vn -0.27101 0.92364 0.27101
vn -0.27101 0.92364 -0.27101
vn 0.27101 0.92364 -0.27101
vn 0.27101 0.92364 0.27101
vn 0.27101 -0.27101 0.92364
vn -0.27101 -0.27101 0.92364
vn -0.27101 0.27101 0.92364
vn 0.27101 0.27101 0.92364
vn -0.92364 -0.27101 0.27101
vn -0.92364 -0.27101 -0.27101
vn -0.92364 0.27101 -0.27101
vn -0.92364 0.27101 0.27101
vn 0.00000 0.00000 -1.00000
vn 1.00000 0.00000 0.00000
vn 0.00000 -1.00000 0.00000
vn 0.00000 1.00000 0.00000
vn 0.00000 0.00000 1.00000
vn -1.00000 0.00000 0.00000
# 134 normals
usemtl default
f  3//3 2//2 1//1
f  2//2 4//4 1//1
f  6//6 5//5 1//1
f  5//5 7//7 1//1
f  9//9 8//8 1//1
f  8//8 10//10 1//1
f  12//12 11//11 3//3
f  11//11 2//2 3//3
f  14//14 13//13 3//3
f  13//13 15//15 3//3
f  1//1 10//10 3//3
f  10//10 16//16 3//3
f  6//6 17//17 12//12
f  17//17 11//11 12//12
f  19//19 18//18 12//12
f  18//18 20//20 12//12
f  3//3 15//15 12//12
f  15//15 21//21 12//12
f  1//1 4//4 6//6
f  4//4 17//17 6//6
f  12//12 20//20 6//6
f  20//20 22//22 6//6
f  24//24 23//23 6//6
f  23//23 5//5 6//6
f  1//1 7//7 9//9
f  7//7 25//25 9//9
f  24//24 26//26 9//9
f  26//26 27//27 9//9
f  14//14 28//28 9//9
f  28//28 8//8 9//9
f  19//19 29//29 14//14
f  29//29 13//13 14//14
f  9//9 27//27 14//14
f  27//27 30//30 14//14
f  3//3 16//16 14//14
f  16//16 28//28 14//14
f  24//24 31//31 19//19
f  31//31 18//18 19//19
f  12//12 21//21 19//19
f  21//21 29//29 19//19
f  14//14 30//30 19//19
f  30//30 32//32 19//19
f  6//6 22//22 24//24
f  22//22 31//31 24//24
f  9//9 25//25 24//24
f  25//25 23//23 24//24
f  19//19 32//32 24//24
f  32//32 26//26 24//24
f  11//11 33//33 2//2
f  33//33 34//34 2//2
f  2//2 34//34 4//4
f  34//34 35//35 4//4
f  4//4 35//35 17//17
f  35//35 36//36 17//17
f  17//17 36//36 11//11
f  36//36 33//33 11//11
f  18//18 37//37 20//20
f  37//37 38//38 20//20
f  20//20 38//38 22//22
f  38//38 39//39 22//22
f  22//22 39//39 31//31
f  39//39 40//40 31//31
f  31//31 40//40 18//18
f  40//40 37//37 18//18
f  23//23 41//41 5//5
f  41//41 42//42 5//5
f  5//5 42//42 7//7
f  42//42 43//43 7//7
f  7//7 43//43 25//25
f  43//43 44//44 25//25
f  25//25 44//44 23//23
f  44//44 41//41 23//23
f  13//13 45//45 15//15
f  45//45 46//46 15//15
f  15//15 46//46 21//21
f  46//46 47//47 21//21
f  21//21 47//47 29//29
f  47//47 48//48 29//29
f  29//29 48//48 13//13
f  48//48 45//45 13//13
f  26//26 49//49 27//27
f  49//49 50//50 27//27
f  27//27 50//50 30//30
f  50//50 51//51 30//30
f  30//30 51//51 32//32
f  51//51 52//52 32//32
f  32//32 52//52 26//26
f  52//52 49//49 26//26
f  8//8 53//53 10//10
f  53//53 54//54 10//10
f  10//10 54//54 16//16
f  54//54 55//55 16//16
f  16//16 55//55 28//28
f  55//55 56//56 28//28
f  28//28 56//56 8//8
f  56//56 53//53 8//8
f  33//33 57//57 34//34
f  57//57 58//58 34//34
f  34//34 58//58 35//35
f  58//58 59//59 35//35
f  35//35 59//59 36//36
f  59//59 60//60 36//36
f  36//36 60//60 33//33
f  60//60 57//57 33//33
f  37//37 61//61 38//38
f  61//61 62//62 38//38
f  38//38 62//62 39//39
f  62//62 63//63 39//39
f  39//39 63//63 40//40
f  63//63 64//64 40//40
f  40//40 64//64 37//37
f  64//64 61//61 37//37
f  41//41 65//65 42//42
f  65//65 66//66 42//42
f  42//42 66//66 43//43
f  66//66 67//67 43//43
f  43//43 67//67 44//44
f  67//67 68//68 44//44
f  44//44 68//68 41//41
f  68//68 65//65 41//41
f  45//45 69//69 46//46
f  69//69 70//70 46//46
f  46//46 70//70 47//47
f  70//70 71//71 47//47
f  47//47 71//71 48//48
f  71//71 72//72 48//48
f  48//48 72//72 45//45
f  72//72 69//69 45//45
f  49//49 73//73 50//50
f  73//73 74//74 50//50
f  50//50 74//74 51//51
f  74//74 75//75 51//51
f  51//51 75//75 52//52
f  75//75 76//76 52//52
f  52//52 76//76 49//49
f  76//76 73//73 49//49
f  53//53 77//77 54//54
f  77//77 78//78 54//54
f  54//54 78//78 55//55
f  78//78 79//79 55//55
f  55//55 79//79 56//56
f  79//79 80//80 56//56
f  56//56 80//80 53//53
f  80//80 77//77 53//53
f  57//57 81//81 58//58
f  81//81 82//82 58//58
f  58//58 82//82 59//59
f  82//82 83//83 59//59
f  59//59 83//83 60//60
f  83//83 84//84 60//60
f  60//60 84//84 57//57
f  84//84 81//81 57//57
f  61//61 85//85 62//62
f  85//85 86//86 62//62
f  62//62 86//86 63//63
f  86//86 87//87 63//63
f  63//63 87//87 64//64
f  87//87 88//88 64//64
f  64//64 88//88 61//61
f  88//88 85//85 61//61
f  65//65 89//89 66//66
f  89//89 90//90 66//66
f  66//66 90//90 67//67
f  90//90 91//91 67//67
f  67//67 91//91 68//68
f  91//91 92//92 68//68
f  68//68 92//92 65//65
f  92//92 89//89 65//65
f  69//69 93//93 70//70
f  93//93 94//94 70//70
f  70//70 94//94 71//71
f  94//94 95//95 71//71
f  71//71 95//95 72//72
f  95//95 96//96 72//72
f  72//72 96//96 69//69
f  96//96 93//93 69//69
f  73//73 97//97 74//74
f  97//97 98//98 74//74
f  74//74 98//98 75//75
f  98//98 99//99 75//75
f  75//75 99//99 76//76
f  99//99 100//100 76//76
f  76//76 100//100 73//73
f  100//100 97//97 73//73
f  77//77 101//101 78//78
f  101//101 102//102 78//78
f  78//78 102//102 79//79
f  102//102 103//103 79//79
f  79//79 103//103 80//80
f  103//103 104//104 80//80
f  80//80 104//104 77//77
f  104//104 101//101 77//77
f  81//81 105//105 82//82
f  105//105 106//106 82//82
f  82//82 106//106 83//83
f  106//106 107//107 83//83
f  83//83 107//107 84//84
f  107//107 108//108 84//84
f  84//84 108//108 81//81
f  108//108 105//105 81//81
f  85//85 109//109 86//86
f  109//109 110//110 86//86
f  86//86 110//110 87//87
f  110//110 111//111 87//87
f  87//87 111//111 88//88
f  111//111 112//112 88//88
f  88//88 112//112 85//85
f  112//112 109//109 85//85
f  89//89 113//113 90//90
f  113//113 114//114 90//90
f  90//90 114//114 91//91
f  114//114 115//115 91//91
f  91//91 115//115 92//92
f  115//115 116//116 92//92
f  92//92 116//116 89//89
f  116//116 113//113 89//89
f  93//93 117//117 94//94
f  117//117 118//118 94//94
f  94//94 118//118 95//95
f  118//118 119//119 95//95
f  95//95 119//119 96//96
f  119//119 120//120 96//96
f  96//96 120//120 93//93
f  120//120 117//117 93//93
f  97//97 121//121 98//98
f  121//121 122//122 98//98
f  98//98 122//122 99//99
f  122//122 123//123 99//99
f  99//99 123//123 100//100
f  123//123 124//124 100//100
f  100//100 124//124 97//97
f  124//124 121//121 97//97
f  101//101 125//125 102//102
f  125//125 126//126 102//102
f  102//102 126//126 103//103
f  126//126 127//127 103//103
f  103//103 127//127 104//104
f  127//127 128//128 104//104
f  104//104 128//128 101//101
f  128//128 125//125 101//101
f  105//105 129//129 106//106
f  106//106 129//129 107//107
f  107//107 129//129 108//108
f  108//108 129//129 105//105
f  109//109 130//130 110//110
f  110//110 130//130 111//111
f  111//111 130//130 112//112
f  112//112 130//130 109//109
f  113//113 131//131 114//114
f  114//114 131//131 115//115
f  115//115 131//131 116//116
f  116//116 131//131 113//113
f  117//117 132//132 118//118
f  118//118 132//132 119//119
f  119//119 132//132 120//120
f  120//120 132//132 117//117
f  121//121 133//133 122//122
f  122//122 133//133 123//123
f  123//123 133//133 124//124
f  124//124 133//133 121//121
f  125//125 134//134 126//126
f  126//126 134//134 127//127
f  127//127 134//134 128//128
f  128//128 134//134 125//125
